<svg width="364" height="268" viewBox="0 0 364 268" fill="none" xmlns="http://www.w3.org/2000/svg">
<path d="M278.659 59.2019C278.809 57.9937 278.93 57.873 280.169 57.6917C278.961 57.5405 278.84 57.4198 278.659 56.1815C278.507 57.3896 278.386 57.5104 277.148 57.6917C278.356 57.8426 278.477 57.9937 278.659 59.2019Z" fill="white" fill-opacity="0.1"/>
<path d="M362.302 201.362C362.453 200.154 362.574 200.033 363.813 199.852C362.604 199.7 362.484 199.58 362.302 198.341C362.151 199.55 362.03 199.67 360.791 199.852C362 200.003 362.121 200.154 362.302 201.362Z" fill="white" fill-opacity="0.1"/>
<path d="M266.063 193.025C266.214 191.816 266.335 191.696 267.574 191.514C266.365 191.363 266.244 191.243 266.063 190.004C265.912 191.212 265.791 191.333 264.552 191.514C265.76 191.665 265.881 191.816 266.063 193.025Z" fill="white" fill-opacity="0.1"/>
<path d="M101.231 101.139C101.382 99.9312 101.503 99.8104 102.742 99.6291C101.533 99.478 101.412 99.3572 101.231 98.1189C101.08 99.3271 100.959 99.4478 99.7201 99.6291C100.929 99.78 101.05 99.9312 101.231 101.139Z" fill="white" fill-opacity="0.1"/>
<path d="M189.944 5.19573C190.095 3.98756 190.216 3.86679 191.455 3.68551C190.246 3.53436 190.125 3.4136 189.944 2.17529C189.793 3.38347 189.672 3.50423 188.433 3.68551C189.641 3.83641 189.762 3.98756 189.944 5.19573Z" fill="white" fill-opacity="0.1"/>
<path d="M209.152 51.2026C209.152 51.8198 209.653 52.3202 210.27 52.3202C210.888 52.3202 211.388 51.8198 211.388 51.2026C211.388 50.5854 210.888 50.0851 210.27 50.0851C209.653 50.0851 209.152 50.5854 209.152 51.2026Z" fill="white" fill-opacity="0.1"/>
<path d="M43.0608 159.068C43.0608 159.685 43.5613 160.185 44.1789 160.185C44.7965 160.185 45.2969 159.685 45.2969 159.068C45.2969 158.45 44.7965 157.95 44.1789 157.95C43.5613 157.95 43.0608 158.45 43.0608 159.068Z" fill="white" fill-opacity="0.1"/>
<path d="M299.773 83.6072C299.773 84.2243 300.274 84.7248 300.892 84.7248C301.509 84.7248 302.01 84.2243 302.01 83.6072C302.01 82.9899 301.509 82.4897 300.892 82.4897C300.274 82.4897 299.773 82.9899 299.773 83.6072Z" fill="white" fill-opacity="0.1"/>
<path d="M88.5944 1.11751C88.5944 1.73458 89.0952 2.23505 89.7128 2.23505C90.3301 2.23505 90.8308 1.73458 90.8308 1.11751C90.8308 0.500175 90.3301 -3.05395e-05 89.7128 -3.05664e-05C89.0952 -3.05934e-05 88.5944 0.500175 88.5944 1.11751Z" fill="white" fill-opacity="0.1"/>
<path d="M326.406 126.886C326.406 127.503 326.907 128.003 327.525 128.003C328.142 128.003 328.643 127.503 328.643 126.886C328.643 126.269 328.142 125.768 327.525 125.768C326.907 125.768 326.406 126.269 326.406 126.886Z" fill="white" fill-opacity="0.1"/>
<path d="M291.618 216.133C291.618 216.751 292.118 217.251 292.736 217.251C293.353 217.251 293.854 216.751 293.854 216.133C293.854 215.516 293.353 215.016 292.736 215.016C292.118 215.016 291.618 215.516 291.618 216.133Z" fill="white" fill-opacity="0.1"/>
<path d="M271.599 107.651C271.599 108.268 272.099 108.769 272.717 108.769C273.335 108.769 273.835 108.268 273.835 107.651C273.835 107.034 273.335 106.534 272.717 106.534C272.099 106.534 271.599 107.034 271.599 107.651Z" fill="white" fill-opacity="0.1"/>
<path d="M287.275 151.136C288.282 151.582 289.46 151.127 289.906 150.12C290.352 149.114 289.897 147.936 288.889 147.49C287.882 147.045 286.704 147.5 286.258 148.506C285.812 149.513 286.268 150.69 287.275 151.136Z" fill="white" fill-opacity="0.15"/>
<path d="M140.571 145.59C140.571 146.691 141.464 147.584 142.565 147.584C143.667 147.584 144.56 146.691 144.56 145.59C144.56 144.489 143.667 143.597 142.565 143.597C141.464 143.597 140.571 144.489 140.571 145.59Z" fill="white" fill-opacity="0.15"/>
<path d="M206.71 112.624C207.489 113.402 208.752 113.402 209.531 112.624C210.31 111.845 210.31 110.583 209.531 109.805C208.752 109.026 207.489 109.026 206.71 109.805C205.931 110.583 205.931 111.845 206.71 112.624Z" fill="white" fill-opacity="0.15"/>
<path d="M278.627 9.99693C278.627 10.614 279.128 11.1145 279.745 11.1145C280.363 11.1145 280.863 10.614 280.863 9.99693C280.863 9.37959 280.363 8.87939 279.745 8.87939C279.128 8.87939 278.627 9.37959 278.627 9.99693Z" fill="white" fill-opacity="0.15"/>
<path d="M156.251 41.068C156.251 41.6851 156.752 42.1856 157.369 42.1856C157.987 42.1856 158.487 41.6851 158.487 41.068C158.487 40.4507 157.987 39.9505 157.369 39.9505C156.752 39.9505 156.251 40.4507 156.251 41.068Z" fill="white" fill-opacity="0.15"/>
<path d="M144.673 215.061C144.825 213.852 144.945 213.732 146.184 213.55C144.976 213.399 144.855 213.278 144.673 212.04C144.522 213.248 144.402 213.369 143.163 213.55C144.371 213.701 144.492 213.852 144.673 215.061Z" fill="white" fill-opacity="0.1"/>
<path d="M57.1485 72.1479C57.2996 70.9398 57.4205 70.819 58.6595 70.6377C57.4507 70.4866 57.3298 70.3658 57.1485 69.1275C56.9974 70.3357 56.8765 70.4564 55.6376 70.6377C56.8463 70.7886 56.9672 70.9398 57.1485 72.1479Z" fill="white" fill-opacity="0.1"/>
<path d="M1.51021 124.768C1.66131 123.56 1.78218 123.439 3.02118 123.258C1.81241 123.107 1.69154 122.986 1.51021 121.747C1.35913 122.956 1.23824 123.076 -0.000740594 123.258C1.20803 123.409 1.3289 123.56 1.51021 124.768Z" fill="white" fill-opacity="0.1"/>
</svg>
